<?xml version="1.0" standalone="yes"?>
<svg xmlns="http://www.w3.org/2000/svg" width="512" height="512">
<path style="fill:#ffffff; stroke:none;" d="M0 0L0 70L1 70C8.99079 52.8761 44.994 60 61 60C61 44.1173 53.9818 8.94131 71 1L49 0L0 0z"/>
<path style="fill:#010101; stroke:none;" d="M61 60L21 60C13.7653 60 7.24804 59.4626 2.51389 66.0154C-6.6143 78.6505 7.96734 90.9673 16 99L71 154C79.1256 162.126 87.7282 174.057 98 179.427C115.059 188.346 140.993 173.525 158 182.028C171.592 188.824 184.262 207.262 195 218C210.564 233.564 225.566 250.185 242 264.826C248.891 270.965 259.454 274.328 266.891 266.891C274.328 259.454 270.965 248.891 264.826 242C250.497 225.916 234.233 211.233 219 196C207.979 184.979 189.001 171.947 182.028 158C173.525 140.993 188.346 115.059 179.427 98C174.057 87.7281 162.126 79.1256 154 71C136.021 53.0206 117.612 35.3769 100.039 17C92.0624 8.65778 80.2359 -7.03723 67.0154 2.51389C60.4626 7.24799 61 13.7654 61 21L61 60z"/>
<path style="fill:#ffffff; stroke:none;" d="M81 0L81 1C91.9241 5.62531 99.7707 17.7707 108 26L158 76C165.006 83.0056 175.916 90.7426 179.91 100C187.323 117.177 175.178 140.574 181.603 158C186.217 170.514 205.611 183.611 215 193C230.98 208.98 247.357 224.653 262.961 241C270.227 248.613 274.91 258.407 265.956 266.891C257.006 275.372 247.257 269.062 240 261.985C223.806 246.195 207.993 229.993 192 214C182.863 204.863 170.185 186.096 158 181.603C140.574 175.178 117.177 187.323 100 179.91C89.3267 175.305 80.1001 162.1 72 154L24 106C16.2485 98.2484 5.34482 90.2617 1 80L0 80L0 236L1 236C1.01461 213.933 8.17536 191.646 15.3441 171C17.9845 163.396 22.5914 155.902 24 148C36.5713 156.855 47.1292 170.129 58 181C61.8298 184.83 68.7517 189.611 70.3032 195C72.2472 201.751 65.8891 214.929 64.6142 222C61.577 238.845 60.1914 257.943 62.2863 275C68.5034 325.622 91.9035 371.669 131 404.866C149.08 420.217 169.901 431.314 192 439.576C212.162 447.113 233.616 450 255 450C281.495 450 307.479 445.628 332 435.127C429.769 393.259 475.114 278.66 435.547 181C411.227 120.974 353.051 74.3622 289 64.4244C267.723 61.123 246.328 61.0647 225 64.1312C217.037 65.2761 202.482 72.4575 195 70.3032C189.611 68.7517 184.83 61.8298 181 58C170.129 47.1292 156.855 36.5713 148 24C155.902 22.5914 163.396 17.9845 171 15.3441C191.646 8.17538 213.933 1.01456 236 1C224.068 -4.00671 202.991 0 190 0L81 0z"/>
<path style="fill:#010101; stroke:none;" d="M148 24C154.129 37.143 170.773 48.7728 181 59C184.791 62.791 189.463 69.5234 195 70.642C204.561 72.5735 220.98 64.8366 231 63.4244C251.532 60.5305 272.659 61.4639 293 65.2608C355.805 76.9842 406.447 121.439 433.742 178C483.772 281.675 418.422 410.264 311 442.279C246.21 461.589 177.73 444.399 127 400.575C90.2212 368.803 66.8325 321.183 62.1698 273C60.5603 256.369 61.6978 238.376 64.804 222C66.2398 214.431 72.1479 202.454 70.642 195C69.5233 189.463 62.791 184.791 59 181C48.7729 170.773 37.143 154.129 24 148C17.9574 168.984 8.42387 188.315 4.00386 210C-6.24946 260.303 0.939398 315.455 22.3086 362C35.5122 390.759 54.0865 418.042 77 439.961C177.019 535.637 339.771 535.928 437.996 436.999C535.841 338.454 535.388 176.76 439.961 77C418.042 54.0865 390.759 35.5121 362 22.3087C315.454 0.939423 260.303 -6.24945 210 4.00385C188.315 8.42386 168.984 17.9575 148 24z"/>
<path style="fill:#ffffff; stroke:none;" d="M278 0L278 1C304.197 1.07217 332.144 9.90543 356 20.1505C422.702 48.7965 476.023 106.069 499 175C505.24 193.719 510.945 214.121 511 234L512 234L512 0L278 0z"/>
<path style="fill:#010101; stroke:none;" d="M241 121.425C233.319 122.471 218.412 123.127 212.603 128.843C209.747 131.654 210.976 138.355 211.001 142C211.088 154.696 232.834 173.671 243 180.593C248.295 184.197 257.816 181.571 264 182.17C274.489 183.185 285.023 186.995 294 192.464C339.059 219.91 341.057 282.129 301 314.539C266.359 342.568 212.701 330.714 191.312 292C186.564 283.404 183.12 273.817 182.17 264C181.612 258.239 183.744 250.384 181.687 245C179.766 239.972 173.72 235.72 170 232C160.086 222.086 146.931 203.909 130.278 211.603C125.18 213.959 123.998 226.094 123.004 231C118.796 251.763 120.509 273.654 125.884 294C142.51 356.928 206.51 396.897 270 390.83C289.243 388.992 308.43 382.688 325 372.799C408.125 323.193 412.821 202.44 335 145.64C321.213 135.577 305.504 128.733 289 124.627C273.759 120.834 256.648 119.295 241 121.425z"/>
<path style="fill:#ffffff; stroke:none;" d="M0 278L0 512L234 512L234 511C214.121 510.945 193.719 505.24 175 499C107.704 476.568 51.853 425.352 22.3086 361C14.5729 344.15 8.76263 326.152 5.00309 308C3.07465 298.689 3.61814 286.603 0 278M511 278C510.928 304.236 502.109 332.111 491.85 356C463.204 422.702 405.931 476.023 337 499C318.281 505.24 297.879 510.945 278 511L278 512L512 512L512 347L512 300L511 278z"/>
</svg>
